<svg width="300" height="300" viewBox="0 0 300 300" xmlns="http://www.w3.org/2000/svg" role="img" aria-label="Logo Adaptogenia">
  <rect width="300" height="300" rx="40" fill="#20312b"/>
  <circle cx="150" cy="150" r="92" fill="#f7f3ea"/>
  <path d="M90 172c10-52 35-78 75-78 33 0 58 23 58 54 0 17-9 31-24 39 8 10 11 22 10 35H96c-5-17-7-34-6-50z" fill="#d7a84f"/>
  <path d="M130 217c0-36 10-73 34-111" stroke="#20312b" stroke-width="10" stroke-linecap="round"/>
  <path d="M150 148c-22-8-37-20-45-38 28-2 50 8 65 30" fill="none" stroke="#20312b" stroke-width="8" stroke-linecap="round"/>
  <text x="150" y="270" text-anchor="middle" font-family="Arial" font-size="25" font-weight="700" fill="#f7f3ea">ADAPTOGENIA</text>
</svg>
